<svg xmlns="http://www.w3.org/2000/svg" width="117" height="25" viewBox="0 0 117 25" fill="none">
    <mask id="mask0_435_1864" style="mask-type:luminance" maskUnits="userSpaceOnUse" x="0" y="0" width="25" height="25"><path d="M24.0334 0.957031H0.0761719V24.8533H24.0334V0.957031Z" fill="white"></path></mask>
    <g mask="url(#mask0_435_1864)">
      <path d="M15.0857 4.50948C14.8769 6.25756 13.6494 8.59248 11.7038 8.72639C10.0604 8.83961 8.19715 8.56605 6.58043 8.72969C5.31024 8.85821 4.47235 9.83971 4.37966 11.0993C4.21397 13.3541 4.50844 15.8109 4.37966 18.0867C4.4703 19.4498 5.30246 20.3374 6.65794 20.4609C9.07032 20.337 11.6484 20.628 14.0415 20.4631C15.2826 20.3775 16.2345 19.6146 16.3518 18.3277C16.4933 16.7722 16.2226 15.0096 16.3555 13.4549C16.4395 12.4718 18.1399 10.8993 18.9278 10.3439C19.1927 10.1575 19.4774 9.99634 19.7604 9.84054V18.7872C19.4573 22.3847 16.7717 24.7596 13.2212 24.8439C11.8645 24.8761 10.4738 24.8056 9.11748 24.7974C6.50824 24.7807 4.41657 25.1187 2.30892 23.2315C0.854188 21.928 0.196339 20.287 0.114313 18.3351C0.00439843 15.7159 0.16804 13.059 0.157787 10.4402C0.482199 7.20807 2.96841 4.71073 6.20515 4.50781L15.0861 4.50988L15.0857 4.50948Z" fill="url(#paint0_linear_435_1864)"></path>
      <path d="M17.537 0.967363L23.0627 0.957031C23.6245 1.03018 23.9399 1.41038 23.9876 1.96745C24.1339 3.68249 23.8736 5.60538 23.9876 7.34274C23.871 8.75072 22.1207 8.30067 21.1338 8.35191C17.6186 8.53457 14.6082 11.2096 14.3892 14.8215C14.3474 15.5088 14.4786 16.3936 14.379 17.0428C14.3134 17.4689 13.8942 17.8305 13.4677 17.8602C11.9018 17.7557 10.171 17.9933 8.62486 17.8602C8.17084 17.821 7.77466 17.5172 7.7033 17.0531C7.77835 15.3695 7.61143 13.6082 7.67828 11.9353C7.73037 10.6273 9.33357 11.0125 10.1846 10.9567C13.6481 10.7302 16.4584 7.48324 16.6852 4.0759C16.7323 3.36427 16.5785 2.36584 16.7122 1.70627C16.7901 1.3207 17.165 1.0339 17.537 0.96695V0.967363Z" fill="white"></path>
    </g>
    <path d="M62.2861 20.3519C60.4477 20.3519 59.0967 19.9583 58.233 19.1714C57.3692 18.3666 56.9373 17.1235 56.9373 15.4423V8.70843H54.3792L54.4456 6.02561H56.1399C56.7822 6.02561 57.2585 5.94512 57.5685 5.78416C57.8786 5.6232 58.0668 5.33702 58.1332 4.92565L58.532 2.88672H60.9572V5.99878H65.5419V8.81574H60.9572V15.3081C60.9572 15.9699 61.1455 16.4528 61.5219 16.7569C61.9207 17.0609 62.5076 17.213 63.2827 17.213C63.7035 17.213 64.1133 17.1772 64.512 17.1056C64.9328 17.0162 65.3204 16.8731 65.6748 16.6764V19.8957C64.9882 20.0745 64.3569 20.1909 63.781 20.2445C63.2274 20.316 62.729 20.3519 62.2861 20.3519Z" fill="white"></path>
    <path d="M74.6339 20.381C73.2385 20.381 71.9872 20.22 70.8796 19.898C69.7944 19.5762 68.8753 19.1111 68.1221 18.5031C67.3691 17.8771 66.7933 17.1259 66.3947 16.2495C65.9959 15.3731 65.7966 14.3804 65.7966 13.2715C65.7966 12.1626 65.9849 11.1432 66.3615 10.2131C66.7601 9.28308 67.325 8.47823 68.0558 7.79858C68.7868 7.11894 69.6727 6.59132 70.7135 6.21574C71.7767 5.84014 72.9838 5.65234 74.3348 5.65234C75.5971 5.65234 76.7267 5.82225 77.7236 6.16206C78.7202 6.50189 79.5617 7.01163 80.2483 7.69127C80.935 8.35303 81.4443 9.18472 81.7767 10.1863C82.1089 11.17 82.2196 12.3147 82.1089 13.6203L68.5209 13.7008V11.7423L79.6837 11.6618L78.2219 12.7618C78.3546 11.7423 78.2551 10.9107 77.9228 10.2668C77.5906 9.60501 77.1143 9.12212 76.4942 8.81806C75.874 8.49613 75.1654 8.33515 74.368 8.33515C73.4599 8.33515 72.6626 8.5319 71.976 8.92537C71.2894 9.30097 70.7579 9.85542 70.3813 10.5887C70.0269 11.3041 69.8498 12.1805 69.8498 13.2179C69.8498 14.7739 70.2705 15.9365 71.1123 16.7055C71.976 17.4747 73.1499 17.8592 74.6339 17.8592C75.2983 17.8592 75.852 17.7965 76.295 17.6713C76.7601 17.5283 77.1477 17.3494 77.4577 17.1348C77.7677 16.9023 78.0114 16.6429 78.1885 16.3568C78.388 16.0706 78.5429 15.7666 78.6536 15.4446L82.3082 16.1153C82.1309 16.7771 81.843 17.3673 81.4443 17.886C81.0457 18.4046 80.5252 18.8517 79.8829 19.2273C79.2627 19.603 78.5207 19.8891 77.657 20.0859C76.7933 20.2827 75.7854 20.381 74.6339 20.381Z" fill="white"></path>
    <path d="M91.4169 20.381C89.9108 20.381 88.6041 20.2021 87.4967 19.8444C86.4113 19.4867 85.5032 18.9859 84.7725 18.3421C84.0636 17.6803 83.5321 16.9112 83.1777 16.0348C82.8233 15.1584 82.6462 14.2105 82.6462 13.1911C82.6462 12.1 82.8233 11.0985 83.1777 10.1863C83.5543 9.27414 84.108 8.47823 84.8388 7.79858C85.5698 7.11894 86.4667 6.59132 87.5299 6.21574C88.6151 5.84014 89.8554 5.65234 91.2508 5.65234C92.646 5.65234 93.8532 5.84014 94.872 6.21574C95.913 6.59132 96.7545 7.11894 97.397 7.79858C98.0392 8.46034 98.4712 9.23837 98.6927 10.1326L94.7725 11.1253C94.7281 10.5887 94.551 10.1147 94.2407 9.7034C93.9307 9.27414 93.51 8.94325 92.9785 8.71075C92.4468 8.47825 91.8155 8.36198 91.0847 8.36198C90.3759 8.36198 89.7559 8.47825 89.2242 8.71075C88.7148 8.92537 88.2829 9.23837 87.9285 9.64974C87.5963 10.0611 87.3306 10.5619 87.1313 11.1521C86.954 11.7244 86.8655 12.3683 86.8655 13.0837C86.8655 14.0674 87.0316 14.9081 87.3638 15.6056C87.696 16.3031 88.2053 16.8486 88.8919 17.2421C89.5786 17.6177 90.4313 17.8054 91.4501 17.8054C92.3582 17.8054 93.0892 17.6713 93.6429 17.403C94.2188 17.1169 94.6505 16.7503 94.9386 16.3031C95.2486 15.856 95.4369 15.3641 95.5032 14.8276L99.2242 15.4983C99.0912 16.2316 98.8366 16.8933 98.46 17.4836C98.0836 18.0739 97.5631 18.5925 96.8987 19.0396C96.2562 19.4688 95.481 19.7997 94.573 20.0322C93.6649 20.2648 92.6129 20.381 91.4169 20.381Z" fill="white"></path>
    <path d="M99.8743 20.0318V0.957031H103.994V11.6615C104.747 11.2859 105.467 10.8745 106.153 10.4274C106.84 9.96235 107.471 9.47944 108.047 8.97864C108.623 8.47785 109.132 7.97707 109.575 7.47628C110.018 6.9576 110.384 6.46575 110.671 6.00072H115.489C115.134 6.69825 114.669 7.38685 114.094 8.0665C113.518 8.74614 112.842 9.37213 112.067 9.94446C111.314 10.5168 110.461 11.0176 109.509 11.4468C108.556 11.8582 107.538 12.1444 106.452 12.3053V12.6809C107.825 12.52 108.977 12.5736 109.907 12.8419C110.838 13.1102 111.624 13.5126 112.266 14.0492C112.909 14.5857 113.44 15.2117 113.861 15.9271C114.304 16.6247 114.714 17.3401 115.09 18.0735L115.954 20.0318H111.336L110.804 18.7442C110.384 17.8498 109.941 17.0629 109.475 16.3832C109.033 15.6857 108.468 15.1491 107.781 14.7735C107.117 14.3801 106.253 14.1833 105.19 14.1833H103.994V20.0318H99.8743Z" fill="white"></path>
    <path d="M44.2489 24.8811C42.3663 24.8811 40.8159 24.7648 39.5977 24.5323C38.4017 24.2997 37.5158 23.9511 36.94 23.486C36.3641 23.021 36.0762 22.4486 36.0762 21.769C36.0762 20.9463 36.4748 20.2756 37.2722 19.7568C38.0917 19.2203 39.2987 18.8894 40.8934 18.7643V18.2277C39.6974 18.2456 38.7893 18.1472 38.1692 17.9326C37.549 17.7 37.239 17.3334 37.239 16.8326C37.239 16.3497 37.538 15.9205 38.136 15.5449C38.7561 15.1693 39.7749 14.8563 41.1924 14.6059V14.0693C39.8414 14.0157 38.7893 13.6758 38.0363 13.0498C37.2833 12.406 36.9067 11.5743 36.9067 10.5548C36.9067 9.64267 37.2168 8.83781 37.837 8.14029C38.4571 7.44276 39.3652 6.89725 40.5612 6.50377C41.7793 6.09241 43.2522 5.88672 44.9798 5.88672H53.5843V8.56954L48.1359 7.92567V8.51589C49.5091 8.69474 50.5168 9.00774 51.1591 9.45488C51.8235 9.902 52.1558 10.5101 52.1558 11.2792C52.1558 12.0125 51.8678 12.6653 51.292 13.2376C50.7161 13.7921 49.8745 14.2303 48.7671 14.5522C47.6818 14.8563 46.364 15.0083 44.8136 15.0083C44.5257 15.0083 44.2156 14.9994 43.8834 14.9815C43.5512 14.9636 43.0307 14.9189 42.322 14.8473C41.8568 15.1156 41.4803 15.3571 41.1924 15.5717C40.9045 15.7684 40.7605 15.9562 40.7605 16.1351C40.7605 16.2782 40.8713 16.4034 41.0927 16.5107C41.3142 16.6001 41.6022 16.6627 41.9565 16.6985C42.3109 16.7342 42.6542 16.7521 42.9864 16.7521H47.6043C48.0473 16.7521 48.6121 16.779 49.2987 16.8326C50.0074 16.8863 50.7051 17.0294 51.3917 17.2619C52.1004 17.4944 52.6873 17.861 53.1524 18.3619C53.6397 18.8626 53.8833 19.5691 53.8833 20.4813C53.8833 21.5008 53.5179 22.3324 52.787 22.9763C52.0783 23.6381 51.0041 24.1209 49.5644 24.425C48.1469 24.7291 46.3751 24.8811 44.2489 24.8811ZM44.6143 22.1446C45.9875 22.1446 47.0838 22.082 47.9033 21.9568C48.7228 21.8317 49.3097 21.6259 49.6641 21.3398C50.0185 21.0714 50.1957 20.7227 50.1957 20.2935C50.1957 19.9 50.0849 19.5959 49.8634 19.3814C49.6419 19.1488 49.354 18.9878 48.9996 18.8984C48.6674 18.809 48.3241 18.7552 47.9698 18.7375C47.6154 18.7196 47.3164 18.7105 47.0728 18.7105H42.9864C41.9233 18.8358 41.1703 19.0773 40.7273 19.4349C40.3065 19.7926 40.0961 20.1862 40.0961 20.6154C40.0961 21.0446 40.2733 21.3666 40.6276 21.5811C40.982 21.8137 41.4914 21.9658 42.1559 22.0373C42.8425 22.1088 43.6619 22.1446 44.6143 22.1446ZM44.714 13.1572C45.8657 13.1572 46.7405 12.9425 47.3385 12.5133C47.9365 12.0661 48.2355 11.4849 48.2355 10.7695C48.2355 10.0004 47.9255 9.37438 47.3053 8.89149C46.7073 8.39069 45.8325 8.14029 44.6807 8.14029C43.5291 8.14029 42.632 8.38175 41.9898 8.86464C41.3696 9.34755 41.0595 9.9646 41.0595 10.7158C41.0595 11.1987 41.1924 11.6279 41.4582 12.0035C41.7461 12.3613 42.1559 12.6474 42.6874 12.862C43.2411 13.0588 43.9166 13.1572 44.714 13.1572Z" fill="white"></path>
    <defs>
      <linearGradient id="paint0_linear_435_1864" x1="9.91826" y1="4.50781" x2="9.91826" y2="24.8523" gradientUnits="userSpaceOnUse">
        <stop stop-color="#FF6103"></stop>
        <stop offset="1" stop-color="#FD5302"></stop>
      </linearGradient>
    </defs>
  </svg>