<svg xmlns="http://www.w3.org/2000/svg" width="621" height="621" viewBox="0 0 621 621" fill="none"><rect width="621" height="621" rx="136" fill="#131212"></rect><g clip-path="url(#clip0_88_4)"><path d="M353.388 171.268C350.434 195.993 333.065 229.019 305.533 230.913C282.279 232.515 255.914 228.645 233.037 230.96C215.064 232.778 203.208 246.661 201.896 264.477C199.552 296.369 203.718 331.12 201.896 363.31C203.179 382.588 214.954 395.143 234.134 396.891C268.27 395.138 304.75 399.253 338.613 396.92C356.174 395.71 369.643 384.92 371.303 366.718C373.305 344.716 369.475 319.786 371.355 297.795C372.545 283.889 396.606 261.648 407.754 253.792C411.503 251.156 415.531 248.876 419.535 246.672V373.218C415.247 424.101 377.246 457.694 327.006 458.887C307.808 459.343 288.129 458.343 268.937 458.226C232.016 457.992 202.418 462.774 172.595 436.078C152.01 417.642 142.701 394.43 141.541 366.823C139.985 329.775 142.301 292.196 142.156 255.154C146.746 209.437 181.927 174.114 227.727 171.244L353.394 171.273L353.388 171.268Z" fill="url(#paint0_linear_88_4)"></path><path d="M388.075 121.149L466.264 121.003C474.215 122.038 478.678 127.415 479.351 135.295C481.423 159.553 477.737 186.751 479.351 211.325C477.703 231.24 452.934 224.874 438.971 225.599C389.23 228.183 346.633 266.02 343.534 317.108C342.942 326.828 344.799 339.343 343.389 348.526C342.46 354.553 336.529 359.667 330.493 360.088C308.336 358.609 283.846 361.971 261.967 360.088C255.542 359.533 249.936 355.237 248.927 348.672C249.989 324.859 247.627 299.946 248.573 276.284C249.31 257.783 271.995 263.231 284.037 262.442C333.047 259.239 372.812 213.312 376.021 165.118C376.688 155.052 374.512 140.93 376.404 131.6C377.507 126.147 382.811 122.09 388.075 121.143V121.149Z" fill="white"></path></g><defs><linearGradient id="paint0_linear_88_4" x1="280.268" y1="171.244" x2="280.268" y2="459.005" gradientUnits="userSpaceOnUse"><stop stop-color="#FF6103"></stop><stop offset="1" stop-color="#FD5302"></stop></linearGradient><clipPath id="clip0_88_4"><rect width="339" height="338" fill="white" transform="translate(141 121)"></rect></clipPath></defs></svg>